<svg xmlns="http://www.w3.org/2000/svg" width="68" height="68" viewBox="0 0 68 68">
    <path fill="#629BF9" fill-rule="evenodd" d="M66 14c-2.4 1.2-4.8 1.6-7.6 2 2.8-1.6 4.8-4 5.6-7.2-2.4 1.6-5.2 2.4-8.4 3.2-2.4-2.4-6-4-9.6-4-6.8 0-12.8 6-12.8 13.2 0 1.2 0 2 .4 2.8-10.8-.4-20.8-5.6-27.2-13.6-1.2 2-1.6 4-1.6 6.8 0 4.4 2.4 8.4 6 10.8-2 0-4-.8-6-1.6 0 6.4 4.4 11.6 10.4 12.8-1.2.4-2.4.4-3.6.4-.8 0-1.6 0-2.4-.4 1.6 5.2 6.4 9.2 12.4 9.2C17.2 52 11.6 54 5.2 54H2c6 3.6 12.8 6 20 6 24 0 37.2-20 37.2-37.2v-1.6c2.8-2 5.2-4.4 6.8-7.2z"/>
</svg>
