<?xml version="1.0" encoding="UTF-8"?>
<svg width="20px" height="20px" viewBox="0 0 20 20" version="1.1" xmlns="http://www.w3.org/2000/svg" xmlns:xlink="http://www.w3.org/1999/xlink">
    <!-- Generator: Sketch 57.1 (83088) - https://sketch.com -->
    <title>icon-readtime</title>
    <desc>Created with Sketch.</desc>
    <g id="Designs-v4" stroke="none" stroke-width="1" fill="none" fill-rule="evenodd">
        <g id="Blog" transform="translate(-1207.000000, -556.000000)" fill="#535B7C">
            <g id="Group-11" transform="translate(161.000000, 369.000000)">
                <g id="Group-7" transform="translate(865.000000, 40.000000)">
                    <g id="Group-5" transform="translate(0.000000, 142.000000)">
                        <g id="icon-readtime" transform="translate(181.000000, 5.000000)">
                            <path d="M16.8889511,10 C16.8897578,10.4913111 16.4921778,10.8888889 16,10.8888889 L10.0026667,10.8888889 L10.0000622,10.8888889 C9.50875111,10.8888889 9.11117333,10.4913111 9.11117333,10 L9.11117333,4 C9.11117333,3.50868889 9.50875111,3.11111111 10.0000622,3.11111111 C10.4913733,3.11111111 10.8889511,3.50868889 10.8889511,4 L10.8889511,9.11111111 L16.0000622,9.11111111 L16.0000622,9.11198 C16.4913733,9.11198 16.8889511,9.50869111 16.8889511,10.0000022 L16.8889511,10 Z M10,18.2222222 C9.50868889,18.2222222 9.11111111,18.6198 9.11111111,19.1111111 C9.11111111,19.6024222 9.50868889,20 10,20 C10.4913111,20 10.8888889,19.6024222 10.8888889,19.1111111 C10.8888889,18.6198 10.4913111,18.2222222 10,18.2222222 Z M0,10 C0,10.4913111 0.397577778,10.8888889 0.889755556,10.8888889 C1.3802,10.88802 1.7777792,10.4913111 1.7777792,10 C1.77864667,9.50868889 1.3802,9.11024444 0.888888889,9.11024444 C0.398444444,9.11111333 0.000866666667,9.50868889 0,10 Z M20,10 C20,4.47666667 15.5226667,0 10,0 C9.50868889,0 9.11111111,0.397577778 9.11111111,0.888888889 C9.11111111,1.3802 9.50868889,1.77777778 10,1.77777778 L10.0017356,1.77777778 C14.5417356,1.77864667 18.2212911,5.45911111 18.2212911,10 L18.22216,10 C18.2230267,10.4913111 18.6206044,10.8888889 19.1110489,10.8888889 C19.6032267,10.8888889 20,10.4913111 20,10 L20,10 Z M5,1.33933333 C4.57464444,1.585 4.42968889,2.1284 4.67448889,2.55373333 C4.92015556,2.97908889 5.46355556,3.12491111 5.88888889,2.87924444 C6.31337778,2.63357778 6.4592,2.09017778 6.2144,1.66484444 C5.96873333,1.24035556 5.42533333,1.09453333 5,1.33933333 Z M14.1111111,17.1206667 C13.6857556,17.3663333 13.5408,17.9097333 13.7856,18.3350667 C14.0312667,18.7595556 14.5746667,18.9053776 15,18.6605778 C15.4253556,18.4149111 15.5711778,17.8715111 15.3255111,17.4461778 C15.0798444,17.0208222 14.5364444,16.875 14.1111111,17.1206667 Z M1.33933333,15 C1.585,15.4253556 2.12926667,15.5711778 2.55462222,15.3255111 C2.97911111,15.0798444 3.12493333,14.5364444 2.88013333,14.1111111 C2.63446667,13.6848889 2.0902,13.5399333 1.66573333,13.7847111 C1.24037778,14.0303778 1.09455578,14.5746444 1.33933333,15 Z M1.33933333,5 C1.09366667,5.42535556 1.23950667,5.96875556 1.66484444,6.2144 C2.0902,6.46006667 2.6336,6.31422667 2.87924444,5.88888889 C3.12488889,5.46355111 2.97907111,4.92013333 2.55373333,4.67448889 C2.12924444,4.42968889 1.58497778,4.57466222 1.33933333,5 Z M17.1206667,14.1111111 C16.875,14.5364667 17.02084,15.0798667 17.4461778,15.3255111 C17.8715333,15.5711778 18.4149333,15.4253378 18.6605778,15 C18.9062444,14.5755111 18.7604044,14.0312444 18.3350667,13.7856 C17.9097111,13.5408 17.3663111,13.6857733 17.1206667,14.1111111 Z M5,18.6606667 C5.42535556,18.9063331 5.96962222,18.7604933 6.21528889,18.3351556 C6.46008889,17.9098 6.31424667,17.3664 5.88977778,17.1207556 C5.46442222,16.8750889 4.92102222,17.0209289 4.67537778,17.4462667 C4.42971111,17.8707556 4.57468444,18.4141556 5.00002222,18.6606667 L5,18.6606667 Z" id="Fill-1"></path>
                        </g>
                    </g>
                </g>
            </g>
        </g>
    </g>
</svg>