<?xml version="1.0" standalone="no"?>
<!DOCTYPE svg PUBLIC "-//W3C//DTD SVG 20010904//EN"
 "http://www.w3.org/TR/2001/REC-SVG-20010904/DTD/svg10.dtd">
<svg version="1.0" xmlns="http://www.w3.org/2000/svg"
 width="640.000000pt" height="480.000000pt" viewBox="0 0 640.000000 480.000000"
 preserveAspectRatio="xMidYMid meet">

<g transform="translate(0.000000,480.000000) scale(0.100000,-0.100000)"
fill="#000000" stroke="none">
<path d="M0 4733 c0 -65 21 -181 42 -233 36 -89 121 -230 139 -230 5 0 9 -6 9
-13 0 -7 12 -20 28 -29 15 -9 39 -28 54 -42 15 -14 31 -26 37 -26 5 0 11 -3
13 -8 2 -4 32 -21 68 -38 127 -61 270 -89 410 -81 159 9 228 26 360 87 152 70
284 216 342 380 28 77 50 227 41 272 l-5 28 -769 0 -769 0 0 -67z"/>
<path d="M4685 3560 c-22 -5 -60 -9 -84 -9 -61 -1 -284 -54 -305 -73 -6 -4
-16 -8 -24 -8 -8 0 -43 -13 -79 -30 -35 -16 -69 -30 -74 -30 -5 0 -9 -4 -9 -9
0 -5 -11 -12 -25 -15 -14 -4 -25 -11 -25 -16 0 -6 -5 -10 -12 -10 -10 0 -83
-52 -153 -110 -47 -39 -117 -110 -165 -169 -25 -29 -49 -59 -55 -65 -5 -6 -26
-34 -45 -63 -19 -28 -38 -49 -42 -47 -4 3 -8 131 -8 285 l0 279 -682 0 -683 0
-1 -1735 -1 -1735 683 0 683 0 5 893 c2 537 8 918 14 957 12 79 33 150 44 150
4 0 8 8 8 18 1 21 57 122 96 171 32 40 116 125 155 156 22 18 129 74 184 96
94 39 298 50 420 23 115 -26 237 -92 299 -163 12 -13 26 -29 31 -35 20 -22 75
-113 75 -124 0 -7 4 -12 8 -12 4 0 16 -26 26 -57 10 -32 22 -67 27 -78 15 -34
30 -115 44 -250 11 -99 14 -320 14 -937 l1 -808 685 0 685 0 -3 988 c-3 968
-6 1070 -37 1222 -41 198 -62 285 -81 322 -5 10 -9 23 -9 29 0 6 -7 27 -16 47
-9 21 -20 46 -24 57 -21 54 -104 215 -110 215 -5 0 -11 11 -14 25 -4 14 -11
25 -16 25 -6 0 -10 7 -10 15 0 8 -4 15 -8 15 -5 0 -14 10 -20 23 -24 51 -174
207 -271 281 -71 54 -185 126 -200 126 -6 0 -11 5 -11 10 0 6 -5 10 -11 10 -6
0 -27 7 -47 16 -21 9 -46 20 -57 25 -25 11 -127 43 -180 57 -22 6 -59 15 -82
22 -102 26 -434 46 -508 30z"/>
<path d="M80 1735 l0 -1735 685 0 685 0 0 1735 0 1735 -685 0 -685 0 0 -1735z"/>
</g>
</svg>
